<?xml version="1.0" encoding="UTF-8"?>
<svg xmlns="http://www.w3.org/2000/svg" style="display:none">
	<symbol id="icon-shop" viewBox="0 0 24 24">

		<!-- ê¸°ì¡´ ìƒì  -->
		<rect x="4" y="9" width="16" height="9" rx="1.5"
			  fill="none"
			  stroke="currentColor"
			  stroke-width="1.6"/>

		<path d="M3 9h18l-2-4H5z"
			  fill="none"
			  stroke="currentColor"
			  stroke-width="1.6"/>

		<!-- ðŸ”¥ ì¶”ê°€: ì²˜ë§ˆ ìž¥ì‹ -->
		<path d="M6 9v2M10 9v2M14 9v2M18 9v2"
			  stroke="currentColor"
			  stroke-width="1.4"
			  opacity="0.7"/>

	</symbol>


	<symbol id="icon-rank" viewBox="0 0 24 24">
		<path d="M8 21V10h4v11zM14 21V3h4v18zM2 21v-7h4v7z"/>
	</symbol>
	<!-- ======================
       HOME (ê¸°ì¡´ ë³µêµ¬)
  ====================== -->
	<symbol id="icon-home" viewBox="0 0 24 24">
		<path d="M3 10.5L12 3l9 7.5V21a1 1 0 0 1-1 1h-5v-7H9v7H4a1 1 0 0 1-1-1z"
			  fill="none"
			  stroke="currentColor"
			  stroke-width="1.6"
			  stroke-linejoin="round"/>
	</symbol>

	<!-- ======================
       JOURNEY (ë›ë‹¨ë°°)
  ====================== -->
	<symbol id="icon-journey" viewBox="0 0 24 24">
		<path d="M4 17h16l-2 4H6z"
			  fill="none"
			  stroke="currentColor"
			  stroke-width="1.6"
			  stroke-linejoin="round"/>
		<path d="M12 4v13"
			  stroke="currentColor"
			  stroke-width="1.6"/>
		<path d="M12 4l6 6-6 2z"
			  fill="none"
			  stroke="currentColor"
			  stroke-width="1.6"
			  stroke-linejoin="round"/>
	</symbol>

	<!-- ======================
       SETTING (í†±ë‹ˆ ìœ ì§€)
  ====================== -->
	<symbol id="icon-setting" viewBox="0 0 24 24">
		<circle cx="12" cy="12" r="3"
				fill="none"
				stroke="currentColor"
				stroke-width="1.6"/>
		<circle cx="12" cy="12" r="8"
				fill="none"
				stroke="currentColor"
				stroke-width="1.2"
				opacity="0.6"/>
		<path d="M12 2v3M12 19v3M2 12h3M19 12h3
             M4.9 4.9l2.1 2.1M16.9 16.9l2.1 2.1
             M4.9 19.1l2.1-2.1M16.9 7.1l2.1-2.1"
			  stroke="currentColor"
			  stroke-width="1.4"
			  stroke-linecap="round"/>
	</symbol>

	<!-- ======================
       CURRENCY : SCROLL
  ====================== -->
	<symbol id="icon-currency-scroll" viewBox="0 0 24 24">
		<path d="M5 4h14v16H5z"
			  fill="none"
			  stroke="currentColor"
			  stroke-width="1.6"/>
		<path d="M7 4c0-1.5 2-2 2-2h6s2 .5 2 2"
			  fill="none"
			  stroke="currentColor"
			  stroke-width="1.4"/>
		<path d="M8 9h8M8 13h8"
			  stroke="currentColor"
			  stroke-width="1.2"
			  opacity="0.7"/>
	</symbol>

	<!-- ======================
       CURRENCY : FRAME
  ====================== -->
	<symbol id="icon-currency-frame" viewBox="0 0 24 24">
		<rect x="3.5" y="3.5" width="17" height="17" rx="2"
			  fill="none"
			  stroke="currentColor"
			  stroke-width="1.6"/>
		<rect x="7" y="7" width="10" height="10"
			  fill="none"
			  stroke="currentColor"
			  stroke-width="1.2"
			  opacity="0.6"/>
	</symbol>

</svg>

